<svg xmlns="http://www.w3.org/2000/svg" version="1.1" x="0" y="0" width="187.85" height="81.282" viewBox="0" enable-background="new 0 0 187.85 81.282" xml:space="preserve">
  <path fill="#FFFFFF" d="M23.882 60.539l-0.364-0.195C23.375 60.27 0.054 48.116 0 19.783l0 0v-0.744V0h49.139v19.04 0.744C49.085 48.115 25.781 60.27 25.607 60.365l0 0 -1.035 0.54L23.882 60.539 23.882 60.539z"/>
  <path fill="#050505" d="M1.489 1.482v16.072l46.178-0.001V1.482H1.489zM41.306 5.815c0.169 0.009 0.314 0.009 0.433 0.009 0.085 0.003 0.155 0.078 0.155 0.131v7.166l-0.603-0.506c0.025-0.043 0.043-0.089 0.043-0.149V5.911C41.327 5.873 41.317 5.844 41.306 5.815zM41.715 13.255h-3.645c-0.035-0.198-0.152-0.373-0.323-0.477h3.277c0.037 0 0.068-0.004 0.101-0.021L41.715 13.255zM33.851 5.922c0.03-0.038 0.251-0.126 0.299-0.114 0.033 0 0.072-0.006 0.11-0.006h0.032c0.663 0 1.448 0.048 2.057 0.276 0.607 0.236 1.021 0.607 1.022 1.31h0.22c0.004-0.703 0.414-1.074 1.027-1.31 0.604-0.229 1.395-0.276 2.051-0.276h0.075c0.032 0 0.06 0.006 0.087 0.006 0.025-0.006 0.12 0.026 0.188 0.052 0.04 0.02 0.069 0.04 0.085 0.052 0.004 0.009 0.006 0.011 0.009 0.015v6.54c0 0.054-0.042 0.096-0.088 0.096h-7.085c-0.048 0-0.088-0.042-0.088-0.096V5.922L33.851 5.922zM33.939 12.779h3.091c-0.167 0.104-0.289 0.279-0.324 0.477h-3.49c-0.015 0-0.024-0.003-0.038-0.003l0.609-0.516C33.834 12.764 33.885 12.779 33.939 12.779zM33.075 5.955c0-0.054 0.063-0.128 0.15-0.131 0.116 0 0.268 0 0.437-0.009 -0.017 0.03-0.027 0.059-0.031 0.097v6.555c0 0.036 0.006 0.07 0.017 0.1l-0.572 0.49V5.955zM28.923 5.835c0.081 0 0.153 0.084 0.153 0.132v7.12l-0.585-0.491c0.014-0.034 0.026-0.07 0.026-0.114V5.922c-0.008-0.038-0.018-0.062-0.028-0.088C28.658 5.835 28.807 5.835 28.923 5.835zM28.946 13.27c0 0-0.012 0-0.019 0h-3.676c-0.029-0.201-0.138-0.374-0.304-0.483h3.261c0.046 0 0.09-0.012 0.131-0.029L28.946 13.27zM24.771 7.179c0.004-0.615 0.327-0.94 0.801-1.137 0.472-0.198 1.091-0.241 1.606-0.241 0.337 0 0.632 0.013 0.822 0.013 0.023 0 0.122 0.021 0.199 0.059 0.036 0.016 0.07 0.038 0.087 0.053l0.008 0.006v6.55c0 0.048-0.039 0.084-0.085 0.084H24.77L24.771 7.179 24.771 7.179zM21.031 5.932C21.049 5.922 21.1 5.884 21.16 5.86c0.069-0.025 0.152-0.037 0.178-0.037 0.193 0 0.49-0.022 0.837-0.022 0.509 0 1.124 0.046 1.594 0.241 0.466 0.207 0.782 0.523 0.784 1.137v5.387h-3.427c-0.054 0-0.094-0.036-0.094-0.084V5.932L21.031 5.932zM21.125 12.787h3.071c-0.169 0.11-0.276 0.282-0.307 0.483h-3.491c-0.014 0-0.029 0-0.047-0.008l0.617-0.517C21.013 12.775 21.065 12.787 21.125 12.787zM20.254 5.967c0-0.047 0.068-0.132 0.154-0.132 0.117 0 0.262 0 0.434-0.002 -0.016 0.026-0.025 0.051-0.031 0.088v6.561c0 0.033 0.011 0.064 0.022 0.093l-0.579 0.49V5.967zM15.67 5.833c0.17 0.002 0.317 0.002 0.433 0.002 0.081 0 0.155 0.084 0.155 0.132v7.135l-0.588-0.498c0.016-0.038 0.027-0.079 0.027-0.123v-6.56C15.695 5.884 15.685 5.859 15.67 5.833zM16.12 13.27h-3.687c-0.029-0.201-0.141-0.374-0.302-0.483h3.256c0.045 0 0.091-0.008 0.129-0.023L16.12 13.27zM11.955 7.179c0.004-0.615 0.325-0.94 0.797-1.137 0.475-0.198 1.094-0.241 1.612-0.241 0.333 0 0.626 0.013 0.817 0.013 0.021 0 0.122 0.021 0.199 0.059 0.038 0.016 0.071 0.038 0.09 0.053l0.007 0.006v6.55c0 0.048-0.04 0.084-0.091 0.084h-3.433L11.955 7.179 11.955 7.179zM8.211 5.932C8.229 5.922 8.282 5.884 8.343 5.86 8.411 5.835 8.498 5.823 8.52 5.823c0.197 0 0.487-0.022 0.836-0.022 0.511 0 1.12 0.046 1.591 0.241 0.467 0.207 0.784 0.523 0.79 1.137h-0.002v5.387h-3.43c-0.052 0-0.094-0.036-0.094-0.084V5.932zM8.305 12.787h3.072c-0.167 0.11-0.275 0.282-0.306 0.483H7.583c-0.028 0-0.048 0-0.063-0.01l0.613-0.524C8.181 12.769 8.245 12.787 8.305 12.787zM7.438 5.967c0-0.047 0.067-0.132 0.152-0.132 0.115 0 0.26 0 0.43-0.002C8.007 5.859 7.999 5.88 7.993 5.922v6.561c0 0.025 0.006 0.049 0.015 0.08l-0.569 0.482L7.438 5.967 7.438 5.967zM6.668 13.797c-0.114 0-0.202-0.096-0.202-0.205v-1.073c-0.302-0.038-0.536-0.226-0.536-0.448 0-0.219 0.234-0.41 0.536-0.452V8.155C6.165 8.111 5.931 7.929 5.931 7.707c0-0.226 0.234-0.406 0.536-0.45V5.884c0-0.112 0.088-0.199 0.202-0.199l0.6 0.117C7.239 5.848 7.221 5.904 7.219 5.967v7.186c0.002 0.198 0.172 0.338 0.365 0.338h3.491c0.017 0.114 0.066 0.217 0.135 0.306L6.668 13.797 6.668 13.797zM11.955 13.797h-0.404c-0.159-0.08-0.269-0.24-0.271-0.432 0.002-0.256 0.211-0.468 0.474-0.468 0.259 0 0.471 0.212 0.471 0.468C12.225 13.556 12.114 13.717 11.955 13.797zM17.523 12.071c0 0.222-0.232 0.403-0.533 0.448v1.073c0 0.108-0.088 0.205-0.201 0.205h-4.496c0.066-0.089 0.114-0.192 0.138-0.307h3.683c0.187 0 0.358-0.14 0.358-0.337V5.967c0-0.083-0.031-0.153-0.075-0.209l0.391-0.073c0.113 0 0.201 0.087 0.201 0.199v1.375c0.301 0.042 0.533 0.223 0.533 0.448 0 0.223-0.232 0.404-0.533 0.449v3.464C17.292 11.662 17.523 11.852 17.523 12.071zM19.481 13.797c-0.11 0-0.197-0.096-0.197-0.205v-1.073c-0.308-0.038-0.538-0.226-0.538-0.448 0-0.219 0.23-0.41 0.538-0.452V8.155c-0.308-0.044-0.538-0.226-0.538-0.448 0-0.226 0.23-0.406 0.538-0.45V5.884c0-0.112 0.086-0.199 0.197-0.199l0.603 0.117c-0.029 0.047-0.045 0.103-0.045 0.165v7.186c0 0.198 0.167 0.338 0.36 0.338h3.493c0.019 0.114 0.07 0.217 0.136 0.306L19.481 13.797 19.481 13.797zM24.771 13.797h-0.408c-0.153-0.08-0.268-0.24-0.268-0.432 0-0.256 0.213-0.468 0.476-0.468 0.26 0 0.472 0.212 0.472 0.468C25.044 13.556 24.93 13.717 24.771 13.797zM30.339 12.071c0 0.222-0.227 0.403-0.53 0.448v1.073c0 0.108-0.089 0.205-0.203 0.205h-4.493c0.065-0.089 0.113-0.192 0.135-0.307h3.679c0.192 0 0.364-0.14 0.364-0.337V5.967c0-0.083-0.031-0.153-0.076-0.209l0.391-0.073c0.114 0 0.203 0.087 0.203 0.199v1.375c0.303 0.042 0.53 0.223 0.53 0.448 0 0.223-0.227 0.404-0.53 0.449v3.464C30.112 11.662 30.339 11.852 30.339 12.071zM32.299 13.797c-0.105 0-0.199-0.096-0.199-0.205v-1.073c-0.307-0.038-0.534-0.226-0.534-0.448 0-0.219 0.228-0.41 0.534-0.452V8.155c-0.307-0.044-0.534-0.226-0.534-0.448 0-0.226 0.228-0.406 0.534-0.45V5.884c0-0.112 0.093-0.199 0.199-0.199l0.596 0.117c-0.024 0.042-0.037 0.097-0.041 0.153v7.186c0.004 0.194 0.17 0.333 0.362 0.333h3.491c0.021 0.121 0.072 0.227 0.143 0.322L32.299 13.797 32.299 13.797zM37.591 13.797h-0.404c-0.162-0.08-0.269-0.24-0.269-0.432 0-0.256 0.209-0.468 0.468-0.468 0.265 0 0.478 0.212 0.478 0.468C37.864 13.556 37.748 13.717 37.591 13.797zM43.16 12.071c0 0.222-0.231 0.411-0.539 0.448v1.073c0 0.108-0.085 0.205-0.195 0.205H37.93c0.073-0.096 0.121-0.202 0.141-0.323h3.674c0.194 0 0.366-0.138 0.366-0.337V5.955c0-0.076-0.026-0.141-0.064-0.197l0.379-0.073c0.11 0 0.195 0.087 0.195 0.199v1.373c0.308 0.043 0.539 0.224 0.539 0.45 0 0.222-0.231 0.404-0.539 0.449v3.464C42.929 11.662 43.16 11.852 43.16 12.071zM13.753 10.835c-0.226 0-0.29-0.056-0.29-0.266v-1.15c0.341 0 0.517 0.14 0.562 0.737h0.085V8.55h-0.085c-0.056 0.59-0.229 0.715-0.562 0.709V8.155c0-0.204 0.06-0.221 0.252-0.221 0.466 0 0.712 0.119 0.789 0.793h0.085V7.768h-1.994V7.89c0.162 0.016 0.307 0.022 0.307 0.337v2.304c0 0.285-0.108 0.304-0.307 0.331v0.121h2.026l0.139-0.992H14.66C14.443 10.713 14.095 10.835 13.753 10.835zM39.178 10.738c0.108 0 0.261 0.163 0.593 0.163 0.634 0 0.856-0.576 0.856-0.998 0-0.514-0.261-0.791-0.383-0.869l-0.503-0.346c-0.294-0.198-0.358-0.303-0.358-0.56 0-0.308 0.192-0.451 0.366-0.451 0.41 0 0.619 0.545 0.682 0.875h0.094V7.518h-0.099c-0.021 0.095-0.037 0.166-0.118 0.166 -0.097 0-0.261-0.159-0.537-0.159 -0.659 0-0.765 0.647-0.765 0.941 0 0.219 0 0.626 0.593 1.015l0.232 0.149c0.221 0.144 0.383 0.261 0.383 0.575 0 0.069-0.011 0.54-0.427 0.54 -0.441 0-0.642-0.544-0.713-1.02h-0.1V10.9h0.1C39.091 10.822 39.105 10.738 39.178 10.738zM8.953 8.156l0.882 2.848h0.093l0.789-2.789c0.081-0.266 0.124-0.36 0.312-0.389v-0.12h-0.737v0.12c0.198 0.013 0.298 0.028 0.298 0.215 0 0.097-0.038 0.221-0.067 0.331l-0.443 1.559 -0.449-1.5c-0.033-0.116-0.107-0.32-0.107-0.41 0-0.178 0.083-0.178 0.301-0.195v-0.12H8.663v0.12C8.808 7.855 8.864 7.87 8.953 8.156zM22.744 10.772c-0.224-0.043-0.302-0.057-0.302-0.436V9.404h0.093l0.718 1.491h0.708v-0.123c-0.042 0-0.095-0.001-0.143-0.089L23.123 9.33c0.186-0.086 0.541-0.23 0.541-0.817 0-0.799-0.729-0.835-0.971-0.835h-1.113v0.127c0.197 0.014 0.306 0.023 0.306 0.429v2.102c0 0.382-0.074 0.399-0.306 0.436v0.123h1.166V10.772zM22.442 8.043c0.015-0.152 0.023-0.202 0.217-0.202 0.275 0 0.416 0.208 0.416 0.685 0 0.614-0.176 0.719-0.633 0.724V8.043zM34.85 7.834v2.502c0 0.399-0.08 0.41-0.335 0.436v0.123h1.239v-0.123c-0.26-0.024-0.342-0.034-0.342-0.436V7.834c0.238 0.011 0.596 0.042 0.664 0.804h0.102l-0.004-0.959h-2.078l-0.008 0.959h0.102C34.254 7.875 34.607 7.845 34.85 7.834zM36.952 10.768c-0.119-0.011-0.285-0.023-0.285-0.203 0-0.081 0.058-0.276 0.157-0.622H37.6c0.046 0.153 0.152 0.508 0.152 0.637 0 0.158-0.058 0.165-0.271 0.188v0.112h1.118v-0.112c-0.165 0.011-0.22-0.156-0.376-0.662l-0.768-2.5h-0.096l-0.766 2.601c-0.108 0.359-0.155 0.522-0.341 0.561v0.112h0.701L36.952 10.768 36.952 10.768zM37.198 8.611l0.347 1.152h-0.674L37.198 8.611zM25.875 7.805c0.161 0.011 0.321 0.021 0.321 0.329v2.298c0 0.296-0.136 0.315-0.321 0.339v0.123h1.212v-0.123c-0.192-0.015-0.33-0.034-0.33-0.339V8.135c0-0.318 0.165-0.322 0.33-0.329V7.679h-1.212V7.805z"/>
  <path fill="#050505" d="M32.912 19.043c0.29 0.438 0.49 0.955 0.58 1.486 0.252 1.496-0.479 3.077-3.213 3.219 -0.045 2.241-0.596 3.157-3.438 3.208 0.246 2.385-0.998 3.16-2.343 3.16 -1.351 0-2.596-0.775-2.348-3.16 -2.843-0.051-3.391-0.967-3.443-3.208 -2.736-0.143-3.461-1.723-3.208-3.219 0.083-0.532 0.288-1.048 0.577-1.486H1.485v0.741C1.508 47.2 24.168 59.01 24.235 59.047l0.343 0.184 0.348-0.184c0.068-0.037 22.729-11.846 22.75-39.263v-0.741H32.912zM13.984 44.197c0.545-0.286 0.96-1.122 1.059-1.691 0.131-0.735 0.286-1.044 0.675-1.056 0.388-0.01 0.544 0.321 0.676 1.056 0.097 0.569 0.512 1.404 1.056 1.691 0.34 0.18 1.433 0.208 1.211 0.847 -0.151 0.291-0.351 0.889-0.648 0.623 -0.302-0.267-0.812-0.956-1.014-1 -0.197-0.034-0.169 0.266-0.085 0.368 0.114 0.13 0.461 0.631 0.658 0.863 0.25 0.282 0.327 0.801-0.111 1.006 -0.433 0.205-0.884-0.056-0.872-0.29 0.015-0.352-0.196-1.361-0.387-1.361 -0.151 0-0.157 0.264-0.141 0.547 -0.06 0.594 0.339 1.069 0.294 1.375 -0.054 0.297-0.116 0.614-0.638 0.607 -0.524-0.015-0.59-0.311-0.638-0.607 -0.049-0.307 0.351-0.782 0.288-1.375 0.018-0.284 0.012-0.547-0.139-0.547 -0.186 0-0.406 1.009-0.382 1.361 0.009 0.234-0.442 0.495-0.877 0.29 -0.436-0.206-0.359-0.725-0.113-1.006 0.199-0.232 0.548-0.732 0.662-0.863 0.081-0.103 0.114-0.402-0.085-0.368 -0.202 0.043-0.712 0.733-1.012 1 -0.3 0.266-0.497-0.332-0.647-0.623C12.552 44.404 13.644 44.377 13.984 44.197zM14.358 42.313c0.348-0.039 0.174 0.323 0.137 0.645 -0.038 0.315-0.124 0.352-0.46-0.1C13.697 42.412 13.981 42.353 14.358 42.313zM17.065 42.346c0.375 0.05 0.661 0.104 0.324 0.546 -0.338 0.453-0.423 0.417-0.462 0.104C16.888 42.677 16.714 42.313 17.065 42.346zM33.184 45.254c-0.187 0-0.399 1.009-0.383 1.361 0.009 0.234-0.435 0.495-0.875 0.29 -0.433-0.206-0.358-0.725-0.11-1.006 0.2-0.232 0.551-0.732 0.662-0.863 0.079-0.103 0.11-0.402-0.087-0.368 -0.198 0.043-0.713 0.733-1.013 1 -0.296 0.266-0.495-0.332-0.646-0.623 -0.226-0.639 0.871-0.667 1.208-0.847 0.545-0.286 0.961-1.122 1.058-1.691 0.128-0.735 0.292-1.044 0.678-1.056 0.384-0.01 0.538 0.321 0.675 1.056 0.096 0.569 0.514 1.404 1.057 1.691 0.339 0.18 1.431 0.208 1.21 0.847 -0.154 0.291-0.351 0.889-0.651 0.623 -0.298-0.267-0.809-0.956-1.011-1 -0.196-0.034-0.168 0.266-0.086 0.368 0.116 0.13 0.464 0.631 0.665 0.863 0.249 0.282 0.322 0.801-0.116 1.006 -0.433 0.205-0.884-0.056-0.87-0.29 0.015-0.352-0.198-1.361-0.387-1.361 -0.153 0-0.16 0.264-0.139 0.547 -0.065 0.594 0.34 1.069 0.286 1.375 -0.048 0.297-0.113 0.614-0.632 0.607 -0.527-0.015-0.587-0.311-0.641-0.607 -0.05-0.307 0.35-0.782 0.288-1.375C33.345 45.517 33.341 45.254 33.184 45.254zM32.312 42.313c0.352-0.039 0.172 0.323 0.139 0.645 -0.038 0.315-0.126 0.352-0.461-0.1C31.653 42.412 31.937 42.353 32.312 42.313zM35.02 42.346c0.379 0.05 0.657 0.104 0.325 0.546 -0.335 0.453-0.423 0.417-0.461 0.104C34.844 42.677 34.666 42.313 35.02 42.346zM35.345 24.81c-0.336 0.45-0.423 0.417-0.461 0.098 -0.04-0.312-0.217-0.681 0.136-0.646C35.398 24.303 35.677 24.365 35.345 24.81zM32.312 24.227c0.352-0.038 0.172 0.328 0.139 0.643 -0.038 0.32-0.126 0.357-0.461-0.094C31.653 24.322 31.937 24.265 32.312 24.227zM31.939 26.111c0.545-0.285 0.961-1.113 1.058-1.688 0.128-0.74 0.292-1.045 0.678-1.061 0.384-0.007 0.538 0.321 0.675 1.061 0.096 0.575 0.514 1.402 1.057 1.688 0.339 0.183 1.431 0.204 1.21 0.848 -0.154 0.3-0.351 0.889-0.651 0.623 -0.298-0.267-0.809-0.958-1.011-0.997 -0.196-0.038-0.168 0.273-0.086 0.363 0.116 0.137 0.464 0.634 0.665 0.862 0.249 0.284 0.322 0.811-0.116 1.015 -0.433 0.202-0.884-0.061-0.87-0.292 0.015-0.352-0.198-1.362-0.387-1.362 -0.153 0-0.16 0.259-0.139 0.55 -0.065 0.593 0.34 1.065 0.286 1.372 -0.048 0.304-0.113 0.615-0.632 0.607 -0.527-0.012-0.587-0.303-0.641-0.607 -0.05-0.307 0.35-0.779 0.288-1.372 0.023-0.291 0.019-0.55-0.139-0.55 -0.187 0-0.399 1.011-0.383 1.362 0.009 0.231-0.435 0.495-0.875 0.292 -0.433-0.205-0.358-0.731-0.11-1.009 0.2-0.234 0.551-0.731 0.662-0.868 0.079-0.09 0.11-0.401-0.087-0.363 -0.198 0.039-0.713 0.73-1.013 0.997 -0.296 0.269-0.495-0.323-0.646-0.623C30.505 26.315 31.602 26.294 31.939 26.111zM33.675 33.332c-0.25-2.53 1.344-3.256 3.239-3.111 -0.25-2.531 1.044-3.358 3.292-3.262 -0.3-2.96 1.697-3.302 3.244-3.203 -0.24-2.205 1.331-3.115 2.397-3.227h0.337c-0.149 10.131-3.538 17.987-7.6 23.833 -1.685-0.418-1.954-1.783-1.821-3.009 -2.49 0.292-3.489-1.508-3.143-3.209 -0.947 0.339-2.993-0.149-3.24-1.947C30.134 34.402 31.579 33.332 33.675 33.332zM26.042 33.311c0.376 0.038 0.66 0.095 0.327 0.541 -0.343 0.454-0.424 0.416-0.46 0.099C25.87 33.632 25.692 33.271 26.042 33.311zM23.338 33.271c0.346-0.04 0.172 0.329 0.132 0.641 -0.035 0.319-0.122 0.356-0.458-0.093C22.672 33.372 22.957 33.311 23.338 33.271zM22.963 35.153c0.541-0.286 0.96-1.117 1.056-1.69 0.13-0.733 0.29-1.043 0.677-1.056 0.385-0.012 0.544 0.323 0.671 1.056 0.1 0.574 0.517 1.405 1.06 1.69 0.341 0.179 1.435 0.204 1.212 0.852 -0.155 0.298-0.354 0.89-0.65 0.623 -0.3-0.27-0.813-0.959-1.008-1 -0.203-0.035-0.172 0.266-0.087 0.367 0.112 0.131 0.46 0.633 0.66 0.863 0.249 0.284 0.32 0.8-0.114 1.008 -0.435 0.205-0.885-0.06-0.875-0.292 0.022-0.356-0.199-1.36-0.387-1.36 -0.15 0-0.155 0.256-0.134 0.54 -0.06 0.604 0.338 1.077 0.288 1.382 -0.051 0.3-0.114 0.614-0.635 0.606 -0.526-0.011-0.589-0.307-0.633-0.606 -0.054-0.305 0.343-0.778 0.283-1.382 0.017-0.283 0.01-0.54-0.137-0.54 -0.19 0-0.403 1.004-0.389 1.36 0.016 0.232-0.434 0.497-0.871 0.292 -0.438-0.208-0.36-0.724-0.11-1.008 0.198-0.229 0.547-0.731 0.658-0.863 0.083-0.101 0.114-0.402-0.089-0.367 -0.199 0.041-0.71 0.73-1.006 1 -0.298 0.267-0.501-0.325-0.651-0.623C21.529 35.357 22.62 35.332 22.963 35.153zM22.15 44.711c-0.197-1.903 0.95-3.159 2.495-3.159 1.545 0 2.691 1.256 2.496 3.159 1.695-0.484 3.939 0.333 3.393 3.254 1.936-0.656 3.425 0.358 3.521 1.946 -4.287 4.466-8.326 6.943-9.489 7.626 -1.182-0.675-5.143-3.115-9.349-7.479 0-1.673 1.542-2.772 3.542-2.093C18.21 45.043 20.458 44.226 22.15 44.711zM18.958 36.198c-0.251 1.797-2.293 2.286-3.24 1.947 0.344 1.701-0.646 3.501-3.145 3.209 0.141 1.27-0.132 2.708-1.989 3.053 -4.063-5.852-7.456-13.727-7.609-23.871 0.016 0 0.031-0.006 0.045-0.006h0.47c1.07 0.118 2.635 1.021 2.403 3.227 1.544-0.099 3.54 0.243 3.242 3.203 2.244-0.096 3.542 0.731 3.288 3.262 1.899-0.146 3.498 0.581 3.247 3.111C17.762 33.332 19.207 34.402 18.958 36.198zM14.097 24.87c-0.042 0.32-0.127 0.357-0.465-0.094 -0.336-0.454-0.047-0.51 0.328-0.549C14.311 24.189 14.134 24.554 14.097 24.87zM16.666 24.261c0.375 0.042 0.659 0.104 0.323 0.548 -0.34 0.45-0.422 0.417-0.46 0.098C16.491 24.595 16.321 24.227 16.666 24.261zM15.989 24.424c0.102 0.575 0.517 1.402 1.062 1.688 0.338 0.183 1.435 0.204 1.209 0.848 -0.151 0.3-0.35 0.892-0.65 0.623 -0.296-0.267-0.807-0.958-1.008-0.997 -0.201-0.038-0.168 0.273-0.084 0.363 0.11 0.137 0.457 0.634 0.66 0.868 0.247 0.278 0.323 0.805-0.112 1.009 -0.438 0.202-0.884-0.061-0.875-0.292 0.018-0.352-0.2-1.362-0.388-1.362 -0.147 0-0.155 0.259-0.133 0.55 -0.065 0.593 0.331 1.065 0.283 1.372 -0.051 0.304-0.113 0.615-0.636 0.607 -0.522-0.012-0.586-0.303-0.636-0.607 -0.048-0.307 0.35-0.779 0.285-1.372 0.024-0.291 0.013-0.55-0.134-0.55 -0.187 0-0.404 1.011-0.389 1.362 0.015 0.231-0.433 0.495-0.869 0.292 -0.435-0.205-0.363-0.731-0.112-1.009 0.197-0.234 0.548-0.731 0.659-0.868 0.084-0.09 0.113-0.401-0.085-0.363 -0.202 0.039-0.71 0.73-1.011 0.997 -0.299 0.269-0.498-0.323-0.646-0.623 -0.227-0.644 0.869-0.665 1.208-0.848 0.543-0.285 0.958-1.113 1.061-1.688 0.128-0.74 0.288-1.045 0.671-1.061C15.708 23.356 15.861 23.684 15.989 24.424z"/>
  <path fill="#050505" d="M70.339 46.487c0 3.738-2.559 6.255-8.226 6.255H51.487V29.559h10.312c4.919 0 7.555 2.243 7.555 6.062 0 2.717-1.573 4.607-4.052 5.235C68.568 41.525 70.339 43.731 70.339 46.487zM57.862 39.203h2.481c1.652 0 2.677-0.63 2.677-2.205 0-1.575-1.024-2.205-2.677-2.205h-2.481V39.203zM57.862 47.43h3.346c1.612 0 2.519-0.708 2.519-2.046 0-1.34-0.907-2.049-2.519-2.049h-3.346V47.43z"/>
  <path fill="#050505" d="M82.894 49.36c-0.514 2.401-2.363 3.854-5.471 3.854 -3.306 0-5.628-2.045-5.628-6.334V34.558h6.374V45.54c0 1.812 0.511 2.913 1.969 2.913 1.654 0 2.679-1.495 2.679-4.446v-9.449h6.374v18.184h-5.707L82.894 49.36z"/>
  <path fill="#050505" d="M95.681 46.487c0.356 1.497 1.497 2.281 2.874 2.281 1.142 0 1.929-0.394 1.929-1.18 0-0.787-0.667-1.142-1.968-1.416l-2.441-0.513c-3.306-0.709-5.038-2.401-5.038-5.394 0-4.407 3.78-6.14 7.834-6.14 4.367 0 7.005 1.811 7.634 5.195l-5.786 0.867c-0.197-1.024-0.824-1.614-2.047-1.614 -0.903 0-1.534 0.433-1.534 1.141 0 0.709 0.511 1.063 1.456 1.221l2.44 0.434c4.013 0.669 5.707 2.833 5.707 5.904 0 4.29-3.738 5.941-8.225 5.941 -4.133 0-6.888-1.494-7.911-4.722L95.681 46.487z"/>
  <path fill="#050505" d="M111.737 26.685c1.891 0 3.504 1.299 3.504 3.346s-1.613 3.346-3.504 3.346c-1.887 0-3.501-1.299-3.501-3.346S109.851 26.685 111.737 26.685zM114.926 34.558v18.184h-6.335V34.558H114.926z"/>
  <path fill="#050505" d="M123.978 38.062c0.944-2.717 3.071-3.937 5.785-3.937 2.795 0 5.314 1.652 5.314 5.826v12.791h-6.336v-10.35c0-1.851-0.553-2.992-2.164-2.992 -1.377 0-2.558 0.827-2.558 3.622v9.72h-6.339V34.558h5.708L123.978 38.062z"/>
  <path fill="#050505" d="M148.729 46.172l5.276 1.652c-1.026 3.896-4.253 5.39-7.874 5.39 -5.39 0-9.325-3.422-9.325-9.367 0-6.141 3.462-9.722 9.17-9.722 5.391 0 8.146 3.464 8.146 8.503 0 0.668 0 1.457-0.079 2.283h-11.1c0.12 2.245 1.22 3.462 3.111 3.462C147.394 48.374 148.298 47.784 148.729 46.172zM148.102 41.684c0-1.576-0.551-2.954-2.323-2.954 -1.535 0-2.517 1.26-2.675 2.954H148.102z"/>
  <path fill="#050505" d="M159.947 46.487c0.355 1.497 1.494 2.281 2.872 2.281 1.141 0 1.928-0.394 1.928-1.18 0-0.787-0.667-1.142-1.967-1.416l-2.441-0.513c-3.306-0.709-5.036-2.401-5.036-5.394 0-4.407 3.778-6.14 7.833-6.14 4.37 0 7.006 1.811 7.635 5.195l-5.787 0.867c-0.197-1.024-0.826-1.614-2.047-1.614 -0.905 0-1.536 0.433-1.536 1.141 0 0.709 0.511 1.063 1.455 1.221l2.445 0.434c4.014 0.669 5.706 2.833 5.706 5.904 0 4.29-3.739 5.941-8.227 5.941 -4.133 0-6.885-1.494-7.912-4.722L159.947 46.487z"/>
  <path fill="#050505" d="M176.791 46.487c0.354 1.497 1.497 2.281 2.873 2.281 1.141 0 1.931-0.394 1.931-1.18 0-0.787-0.67-1.142-1.971-1.416l-2.438-0.513c-3.306-0.709-5.041-2.401-5.041-5.394 0-4.407 3.78-6.14 7.835-6.14 4.368 0 7.005 1.811 7.635 5.195l-5.789 0.867c-0.194-1.024-0.824-1.614-2.045-1.614 -0.905 0-1.534 0.433-1.534 1.141 0 0.709 0.511 1.063 1.455 1.221l2.44 0.434c4.017 0.669 5.708 2.833 5.708 5.904 0 4.29-3.74 5.941-8.227 5.941 -4.132 0-6.885-1.494-7.912-4.722L176.791 46.487z"/>
  <path fill="#050505" d="M64.473 80.81c-0.745-0.629-1.021-1.495-1.296-2.597l-0.71-2.874c-0.393-1.652-1.062-1.968-2.559-1.968h-2.006v7.439h-6.415V57.633h9.917c5.194 0 8.777 2.005 8.777 7.277 0 3.66-2.362 5.471-4.919 5.903 2.124 0.433 3.188 1.375 3.739 3.384l1.101 3.974c0.276 1.025 0.59 1.812 1.417 2.638L64.473 80.81 64.473 80.81zM57.902 68.178h2.48c2.242 0 3.227-0.909 3.227-2.559 0-1.654-0.985-2.559-3.227-2.559h-2.48V68.178z"/>
  <path fill="#050505" d="M83.05 74.238l5.273 1.652c-1.022 3.897-4.252 5.392-7.871 5.392 -5.393 0-9.329-3.424-9.329-9.365 0-6.14 3.464-9.722 9.171-9.722 5.391 0 8.146 3.463 8.146 8.5 0 0.668 0 1.455-0.079 2.284H77.266c0.118 2.24 1.22 3.459 3.109 3.459C81.711 76.438 82.617 75.852 83.05 74.238zM82.42 69.75c0-1.571-0.551-2.95-2.321-2.95 -1.534 0-2.519 1.258-2.676 2.95H82.42z"/>
  <path fill="#050505" d="M87.97 62.63h6.688l2.087 7.319c0.748 2.637 1.18 4.449 1.18 4.449h0.079c0 0 0.394-1.812 1.222-4.449l2.361-7.319h6.177l-6.609 18.181h-6.848L87.97 62.63z"/>
  <path fill="#050505" d="M112.289 54.761c1.889 0 3.505 1.299 3.505 3.345s-1.616 3.343-3.505 3.343c-1.888 0-3.502-1.297-3.502-3.343S110.401 54.761 112.289 54.761zM115.477 62.63V80.81h-6.337V62.63H115.477z"/>
  <path fill="#050505" d="M129.369 74.238l5.272 1.652c-1.023 3.897-4.25 5.392-7.87 5.392 -5.392 0-9.326-3.424-9.326-9.365 0-6.14 3.463-9.722 9.171-9.722 5.389 0 8.145 3.463 8.145 8.5 0 0.668 0 1.455-0.079 2.284h-11.098c0.117 2.24 1.217 3.459 3.107 3.459C128.032 76.438 128.937 75.852 129.369 74.238zM128.74 69.75c0-1.571-0.551-2.95-2.322-2.95 -1.537 0-2.521 1.258-2.675 2.95H128.74z"/>
  <path fill="#050505" d="M151.763 62.63l1.298 6.333c0.669 3.268 1.023 5.708 1.023 5.708h0.077c0 0 0.394-2.402 1.141-5.629l1.457-6.412h6.177l-4.918 18.181h-7.121l-1.103-5.314c-0.55-2.677-0.986-5.824-0.986-5.824h-0.076c0 0-0.435 3.147-0.984 5.824l-1.103 5.314h-7.083l-4.92-18.181h6.417l1.455 6.412c0.748 3.227 1.141 5.629 1.141 5.629h0.079c0 0 0.354-2.44 1.022-5.708l1.302-6.333H151.763z"/>
  <path fill="#050505" d="M90.061 18.683c0 0.865 0.238 1.337 0.906 1.337 0.392 0 0.788-0.156 1.142-0.354v4.488c-0.866 0.63-1.691 0.866-3.148 0.866 -2.44 0-3.778-1.104-4.488-2.875 -1.023 1.89-2.638 2.953-5.233 2.953 -3.343 0-5.432-1.969-5.432-5.079 0-3.897 2.794-5.864 8.264-5.864h1.851v-1.22c0-1.181-0.392-2.008-1.534-2.008 -1.103 0-1.612 0.669-1.691 2.166l-6.063-0.945c0.356-3.739 3.269-6.101 7.951-6.101 5.196 0 7.477 2.283 7.477 6.26L90.061 18.683 90.061 18.683zM83.921 17.384h-0.824c-2.284 0-3.072 0.707-3.072 1.889 0 0.866 0.59 1.535 1.693 1.535 1.062 0 2.203-0.551 2.203-2.243V17.384z"/>
  <path fill="#050505" d="M105.529 13.644c-0.748-0.277-1.183-0.472-2.205-0.472 -1.495 0-3.304 0.59-3.304 3.818v7.677h-6.341V6.479h5.433l0.63 4.488c0.511-3.032 3.07-4.488 6.179-4.488L105.529 13.644z"/>
  <path fill="#050505" d="M106.537 6.479h6.694l2.084 7.322c0.748 2.637 1.179 4.448 1.179 4.448h0.081c0 0 0.393-1.811 1.219-4.448l2.361-7.322h6.18l-6.612 18.187h-6.85L106.537 6.479z"/>
  <path fill="#050505" d="M141.604 18.683c0 0.865 0.236 1.337 0.907 1.337 0.392 0 0.785-0.156 1.141-0.354v4.488c-0.867 0.63-1.693 0.866-3.15 0.866 -2.438 0-3.777-1.104-4.487-2.875 -1.023 1.89-2.635 2.953-5.232 2.953 -3.347 0-5.433-1.969-5.433-5.079 0-3.897 2.792-5.864 8.264-5.864h1.85v-1.22c0-1.181-0.393-2.008-1.534-2.008 -1.104 0-1.615 0.669-1.693 2.166l-6.061-0.945c0.353-3.739 3.266-6.101 7.95-6.101 5.196 0 7.478 2.283 7.478 6.26V18.683L141.604 18.683zM135.463 17.384h-0.828c-2.281 0-3.068 0.707-3.068 1.889 0 0.866 0.59 1.535 1.692 1.535 1.064 0 2.204-0.551 2.204-2.243V17.384z"/>
  <path fill="#050505" d="M157.069 13.644c-0.748-0.277-1.178-0.472-2.205-0.472 -1.494 0-3.304 0.59-3.304 3.818v7.677h-6.336V6.479h5.432l0.627 4.488c0.513-3.032 3.072-4.488 6.181-4.488L157.069 13.644z"/>
  <path fill="#050505" d="M170.882 0.341h6.378v24.326h-5.748l-0.589-3.15c-0.67 2.44-2.835 3.622-5.59 3.622 -4.251 0-7.282-3.307-7.282-9.212 0-6.101 2.914-9.879 8.03-9.879 2.325 0 4.171 1.062 4.8 2.795L170.882 0.341 170.882 0.341zM170.924 14.273c0-2.32-1.143-3.581-2.992-3.581 -1.85 0-3.424 1.378-3.424 5 0 2.992 1.26 4.565 3.344 4.565 1.616 0 3.072-1.22 3.072-3.699V14.273L170.924 14.273z"/>
  <path fill="#050505" d="M51.487 24.667V1.482h6.455V10.1h7.951V1.482h6.454v23.185h-6.454v-8.976h-7.951v8.976H51.487z"/>
</svg>
